<svg xmlns="http://www.w3.org/2000/svg" width="196" height="33" viewBox="0 0 196 33" fill="none" class="landing-logo"><path d="M83.6063 17.3927C83.5865 15.4581 82.8706 13.8875 81.4576 12.6805C80.0442 11.4738 78.2676 10.8705 76.1287 10.8705C74.7747 10.8705 73.4892 11.1747 72.2725 11.7828C71.0554 12.3915 70.0352 13.3388 69.2109 14.6254C68.3866 15.9118 67.9741 17.4031 67.9741 19.0982C67.9741 21.5514 68.7692 23.5258 70.3588 25.0218C71.9487 26.5178 73.8519 27.2659 76.07 27.2659C78.602 27.2659 80.7996 26.2888 82.6645 24.3338L80.7212 22.1494C79.583 23.5459 78.1355 24.2441 76.379 24.2441C74.6225 24.2441 73.234 23.6059 72.2135 22.3291L83.6359 17.4524L83.6063 17.3927ZM71.1831 19.7262C71.1635 19.6068 71.1536 19.4172 71.1536 19.1579C71.1536 17.5225 71.6882 16.246 72.7581 15.3283C73.8279 14.411 75.0103 13.952 76.3056 13.952C78.013 13.952 79.2003 14.6103 79.8677 15.9269L71.1831 19.7262Z" fill="#ffffff"/> <path d="M64.1926 11.8577C63.2797 12.4964 62.5583 13.3139 62.0286 14.3109V11.11H58.7319V27.0265H62.0286V20.2048C62.0286 18.39 62.4408 16.9439 63.2657 15.8667C64.0892 14.7898 65.3157 14.2512 66.9453 14.2512H67.1216L67.0923 10.8702C66.0716 10.8904 65.1055 11.2196 64.1926 11.8577Z" fill="#ffffff"/> <path d="M95.4236 18.9185C94.8936 18.5593 94.3979 18.2804 93.9369 18.0808C93.4753 17.8814 92.9994 17.702 92.5095 17.5422C92.0181 17.3829 91.454 17.2237 90.8162 17.0636C90.1783 16.904 89.6829 16.7344 89.3297 16.5547C88.8194 16.3156 88.5645 15.9368 88.5645 15.4181C88.5645 14.8397 88.8094 14.406 89.3002 14.1166C89.7904 13.8278 90.4288 13.6829 91.2137 13.6829C92.7051 13.6829 94.0889 14.1119 95.3648 14.9692L96.6013 12.486C94.9921 11.4091 93.2841 10.8702 91.4788 10.8702C89.6729 10.8702 88.2058 11.3146 87.0775 12.202C85.9486 13.0894 85.3847 14.2714 85.3847 15.7472C85.3847 17.8416 87.014 19.3371 90.2719 20.2345C90.3499 20.2547 90.4674 20.2948 90.625 20.3545C92.7051 20.9929 93.7454 21.711 93.7454 22.5089C93.7454 23.0472 93.5291 23.491 93.0976 23.8401C92.6659 24.1891 92.0772 24.3635 91.3315 24.3635C89.6244 24.3635 87.8579 23.6657 86.0325 22.2692L84.4429 24.8721C85.3847 25.6302 86.4689 26.2184 87.6957 26.6373C88.9225 27.0562 90.1047 27.2656 91.2429 27.2656C92.931 27.2656 94.3145 26.812 95.3946 25.9044C96.4733 24.9969 97.0132 23.7854 97.0132 22.2692C97.0132 20.7538 96.4832 19.6365 95.4236 18.9185Z" fill="#ffffff"/> <path d="M54.2549 7.93858C52.822 6.72206 50.5455 6.11338 47.425 6.11338H40.3599V27.0264H43.8337V20.893H47.4838C50.5063 20.893 52.7483 20.3048 54.2107 19.1278C55.6723 17.9514 56.404 16.0962 56.404 13.5631C56.404 11.0305 55.6872 9.15538 54.2549 7.93858ZM51.7968 16.57C51.0997 17.3178 49.7898 17.692 47.8667 17.692H43.8337V9.31463H47.3663C49.2505 9.31463 50.634 9.61378 51.5171 10.2124C52.4002 10.8107 52.8419 11.8329 52.8419 13.279C52.8419 14.7255 52.4934 15.8217 51.7968 16.57Z" fill="#ffffff"/> <path d="M104.728 24.3635C104.022 24.3635 103.472 24.139 103.08 23.6904C102.687 23.2415 102.491 22.6387 102.491 21.8803V13.8023H106.613V11.11H102.491V6.11351H99.1938V21.7906C99.1938 23.4661 99.6893 24.7973 100.681 25.7847C101.671 26.7722 102.869 27.2656 104.272 27.2656C105.675 27.2656 106.956 26.7374 108.114 25.6801L106.759 23.3164C106.113 24.015 105.435 24.3635 104.728 24.3635Z" fill="#ffffff"/> <path d="M121.114 13.8624C119.78 11.8682 118.082 10.8703 116.021 10.8703C113.961 10.8703 112.175 11.6086 110.664 13.0844C109.152 14.5606 108.397 16.5355 108.397 19.008C108.397 21.4815 109.133 23.4766 110.605 24.992C112.077 26.5076 113.804 27.2657 115.786 27.2657C116.767 27.2657 117.744 27.0218 118.715 26.5326C119.686 26.0442 120.486 25.3413 121.114 24.4236V27.0266H124.411V11.1098H121.114V13.8624ZM119.819 22.8527C118.916 23.8203 117.817 24.3037 116.522 24.3037C115.227 24.3037 114.098 23.8251 113.136 22.8679C112.175 21.9101 111.694 20.6687 111.694 19.1429C111.694 17.6171 112.165 16.3454 113.107 15.3282C114.049 14.311 115.177 13.8024 116.493 13.8024C117.807 13.8024 118.916 14.311 119.819 15.3282C120.721 16.3454 121.173 17.6124 121.173 19.128C121.173 20.644 120.721 21.8855 119.819 22.8527Z" fill="#ffffff"/> <path d="M169.738 10.8703C167.383 10.8703 165.42 11.6635 163.85 13.249C162.28 14.8348 161.495 16.7746 161.495 19.0683C161.495 21.362 162.28 23.3016 163.85 24.8874C165.42 26.4729 167.383 27.2657 169.738 27.2657C172.093 27.2657 174.055 26.4729 175.626 24.8874C177.195 23.3016 177.98 21.362 177.98 19.0683C177.98 16.7746 177.195 14.8348 175.626 13.249C174.055 11.6635 172.093 10.8703 169.738 10.8703ZM173.285 22.823C172.353 23.7906 171.17 24.2739 169.738 24.2739C168.305 24.2739 167.123 23.7906 166.191 22.823C165.258 21.8558 164.792 20.6042 164.792 19.0683C164.792 17.5325 165.258 16.2812 166.191 15.3136C167.123 14.3464 168.305 13.8624 169.738 13.8624C171.17 13.8624 172.353 14.3464 173.285 15.3136C174.217 16.2812 174.683 17.5325 174.683 19.0683C174.683 20.6042 174.217 21.8558 173.285 22.823Z" fill="#E3046F"/> <path d="M193.697 13.0845C192.205 11.6086 190.409 10.8704 188.309 10.8704C186.209 10.8704 184.512 11.878 183.216 13.8925V11.1101H179.919V32.8306H183.216V24.6331C184.786 26.3885 186.558 27.2658 188.53 27.2658C190.502 27.2658 192.23 26.4982 193.711 24.9623C195.193 23.4267 195.934 21.4316 195.934 18.9784C195.934 16.5252 195.188 14.5606 193.697 13.0845ZM191.194 22.8377C190.232 23.7951 189.104 24.274 187.809 24.274C186.513 24.274 185.415 23.7906 184.512 22.8231C183.609 21.8558 183.157 20.6141 183.157 19.0981C183.157 17.5827 183.609 16.3208 184.512 15.3137C185.415 14.3063 186.523 13.8025 187.838 13.8025C189.153 13.8025 190.282 14.3063 191.224 15.3137C192.166 16.3208 192.636 17.5875 192.636 19.113C192.636 20.6387 192.156 21.8805 191.194 22.8377Z" fill="#E3046F"/> <path d="M153.819 10.8704C152.72 10.8704 151.694 11.1502 150.742 11.7081C149.79 12.2669 149.079 13.0348 148.608 14.0122V4.85702H145.311V27.0266H148.608V18.41C148.608 16.9339 149.03 15.8121 149.874 15.0442C150.718 14.2766 151.709 13.8925 152.848 13.8925C155.241 13.8925 156.439 15.3582 156.439 18.29V27.0266H159.736V17.2729C159.736 15.1987 159.192 13.6132 158.102 12.5161C157.013 11.4193 155.585 10.8704 153.819 10.8704Z" fill="#E3046F"/> <path d="M141.368 16.9739C140.299 16.0366 138.709 15.3087 136.599 14.7898C134.489 14.2714 133.111 13.7875 132.463 13.3386C131.816 12.89 131.492 12.2418 131.492 11.394C131.492 10.5464 131.816 9.91306 132.463 9.49447C133.111 9.07532 133.94 8.86588 134.951 8.86588C135.961 8.86588 136.986 9.04532 138.027 9.40447C139.067 9.76334 139.891 10.2223 140.5 10.7808L142.354 8.11814C141.413 7.32077 140.294 6.70172 138.999 6.26322C137.703 5.82444 136.398 5.60492 135.083 5.60492C133.042 5.60492 131.329 6.12864 129.946 7.17554C128.563 8.22271 127.871 9.71371 127.871 11.6483C127.871 13.5831 128.479 15.0191 129.696 15.9567C130.304 16.4552 131.001 16.8592 131.786 17.1682C132.571 17.4777 133.719 17.8166 135.231 18.1853C136.742 18.5549 137.806 18.9634 138.425 19.4119C139.043 19.8608 139.352 20.4888 139.352 21.2969C139.352 22.1049 139.023 22.7531 138.366 23.2415C137.708 23.7307 136.82 23.9747 135.701 23.9747C133.464 23.9747 131.305 23.0573 129.225 21.222L127.047 23.8847C129.539 26.1391 132.394 27.2656 135.613 27.2656C137.811 27.2656 139.587 26.6973 140.942 25.5601C142.295 24.4235 142.973 22.9426 142.973 21.1174C142.973 19.2922 142.438 17.9117 141.368 16.9739Z" fill="#E3046F"/> <path d="M10.3724 25.2611C10.6278 25.1456 10.8869 25.0394 11.1481 24.9396C11.443 24.8268 11.7404 24.7209 12.0417 24.6286C12.4169 24.5137 12.7951 24.4099 13.1786 24.3272C13.6953 24.2156 14.2184 24.1332 14.7453 24.0811C14.4498 25.0253 14.1232 25.9643 13.7692 26.8974C13.7844 27.0779 13.7924 27.2596 13.7974 27.4418C14.51 27.2991 15.2463 27.2226 16 27.2226C16.7539 27.2226 17.49 27.2991 18.2028 27.4418C18.2075 27.2596 18.2155 27.0779 18.2307 26.8974C17.8767 25.9643 17.5504 25.0253 17.2546 24.0811C17.7816 24.1332 18.3046 24.2156 18.8213 24.3272C19.2048 24.4099 19.583 24.5137 19.9582 24.6286C20.2598 24.7209 20.5569 24.8268 20.8521 24.9396C21.1133 25.0394 21.3726 25.1456 21.6278 25.2611C23.4409 26.0818 25.0937 27.2989 26.449 28.8782C29.8467 25.8965 31.9999 21.4902 31.9999 16.57C31.9999 7.5895 24.8365 0.309443 16 0.309443C7.16366 0.309443 0 7.5895 0 16.57C0 21.4902 2.15349 25.8965 5.55089 28.8782C6.90655 27.2989 8.55932 26.0815 10.3724 25.2611Z" fill="#A0DBE8"/> <path d="M11.4268 28.203C12.178 27.8654 12.9709 27.6075 13.7971 27.4418C13.7925 27.2596 13.7845 27.0779 13.7693 26.8973C14.1232 25.9643 14.4499 25.0253 14.7453 24.081C14.2184 24.1329 13.6953 24.2156 13.1786 24.3272C12.7952 24.4099 12.4169 24.5136 12.0418 24.6286C11.7405 24.7208 11.4431 24.8268 11.1482 24.9395L12.3143 25.2266L11.4268 28.203Z" fill="#515353"/> <path d="M8.67729 29.956C8.70653 29.6529 8.72446 29.3473 8.72446 29.0384C8.72446 28.8525 8.87261 28.7019 9.05551 28.7019H9.34629L10.3723 25.261C8.55921 26.0816 6.90644 27.2987 5.55078 28.878C6.29785 29.5338 7.10507 30.1203 7.96332 30.6281C8.19174 30.3939 8.42982 30.1696 8.67729 29.956Z" fill="#515353"/> <path d="M21.6279 25.2613L22.6539 28.702H22.9444C23.1276 28.702 23.2757 28.8528 23.2757 29.0384C23.2757 29.3474 23.2934 29.6533 23.3226 29.9561C23.5701 30.1697 23.8082 30.3943 24.0366 30.6284C24.8949 30.1204 25.7021 29.5341 26.4491 28.8781C25.0938 27.299 23.4407 26.0817 21.6279 25.2613Z" fill="#515353"/> <path d="M19.6859 25.2266L20.8521 24.9395C20.5571 24.8268 20.2597 24.7208 19.9582 24.6285C19.583 24.5139 19.2048 24.4099 18.8216 24.3271C18.3049 24.2156 17.7818 24.1331 17.2546 24.081C17.5504 25.0253 17.8767 25.9642 18.231 26.8973C18.2155 27.0778 18.2075 27.2595 18.2028 27.4418C19.0291 27.6075 19.8225 27.8657 20.5734 28.2032L19.6859 25.2266Z" fill="#515353"/> <path d="M16.0003 28.7019H18.2548C18.2084 28.281 18.1922 27.8619 18.2029 27.446C17.4901 27.3038 16.754 27.2275 16.0003 27.2275C15.2464 27.2275 14.5101 27.3038 13.7975 27.446C13.8082 27.8619 13.7917 28.281 13.7456 28.7019H16.0003Z" fill="#231F20"/> <path d="M7.96338 30.6291C8.14932 30.7387 8.33691 30.8457 8.52754 30.948C8.5943 30.623 8.64534 30.2932 8.67734 29.9593C8.42988 30.1719 8.19208 30.3958 7.96338 30.6291Z" fill="#231F20"/> <path d="M11.2781 28.7019H13.7452C13.7916 28.281 13.8078 27.8618 13.7971 27.446C12.9708 27.6112 12.178 27.8683 11.4268 28.2047L11.2781 28.7019Z" fill="#231F20"/> <path d="M23.3228 29.9593C23.355 30.2935 23.4058 30.623 23.4726 30.948C23.6632 30.8457 23.8508 30.739 24.0367 30.6291C23.8083 30.3958 23.5702 30.1722 23.3228 29.9593Z" fill="#231F20"/> <path d="M20.7222 28.7019L20.5735 28.2047C19.8223 27.8683 19.0291 27.6112 18.2029 27.446C18.1921 27.8618 18.2084 28.281 18.2548 28.7019H20.7222Z" fill="#231F20"/> <path d="M11.2781 28.7019L11.4268 28.2031L12.3143 25.2265L11.1482 24.9396C10.8869 25.0395 10.6279 25.1454 10.3724 25.2612L9.34644 28.7019H10.448H11.2781Z" fill="#AA9678"/> <path d="M20.5735 28.2031L20.7222 28.7019H21.5521H22.6542L21.6279 25.2612C21.3725 25.1454 21.1134 25.0392 20.8522 24.9394L19.686 25.2265L20.5735 28.2031Z" fill="#AA9678"/> <path d="M9.37988 29.3969C9.39009 29.39 9.4003 29.3832 9.41023 29.3764H9.38126C9.38099 29.3832 9.38016 29.39 9.37988 29.3969Z" fill="#C0B098"/> <path d="M16 29.3749H13.646H11.0773H9.4102C9.40027 29.3822 9.39006 29.3895 9.37985 29.3968C9.35778 30.0324 9.27419 30.6553 9.13818 31.2615C11.218 32.2663 13.5439 32.8304 16 32.8304V29.3749Z" fill="#C0B098"/> <path d="M22.6188 29.3763H22.5898C22.5998 29.3831 22.61 29.3899 22.6199 29.3967C22.6196 29.3899 22.6188 29.3831 22.6188 29.3763Z" fill="#AA9678"/> <path d="M22.5898 29.3749H20.923H18.354H16.0002V32.8304C18.4561 32.8304 20.782 32.2663 22.8618 31.2615C22.7258 30.6553 22.6422 30.0324 22.6202 29.3968C22.6099 29.3895 22.6 29.3822 22.5898 29.3749Z" fill="#AA9678"/> <path d="M23.3226 29.9569C23.2933 29.6539 23.2757 29.3483 23.2757 29.0393C23.2757 28.8534 23.1272 28.7028 22.9443 28.7028H22.6538H21.552H20.7221H18.2547H16.0003H13.7453H11.2781H10.448H9.34614H9.05565C8.87274 28.7028 8.72432 28.8534 8.72432 29.0393C8.72432 29.3483 8.70666 29.6539 8.67742 29.9569C8.64514 30.2923 8.59411 30.6228 8.52734 30.9489C8.72873 31.0571 8.93178 31.1625 9.13813 31.2623C9.27414 30.6562 9.35773 30.0332 9.3798 29.3976C9.38008 29.3903 9.3809 29.3833 9.38118 29.3757H9.41015H11.0773H13.6459H16H16.0003H18.354H20.9227H22.5895H22.6188C22.6188 29.3833 22.6196 29.3903 22.6199 29.3976C22.642 30.0332 22.7256 30.6562 22.8616 31.2623C23.0679 31.1625 23.271 31.0571 23.4724 30.9489C23.4056 30.6228 23.3548 30.2923 23.3226 29.9569Z" fill="#8A7460"/> <path d="M20.5812 26.3816C20.5329 26.325 20.4832 26.2641 20.4316 26.1954C20.4832 26.2641 20.5329 26.325 20.5812 26.3816Z" fill="#515353"/> <path d="M20.9491 26.7531C20.9491 26.7531 20.9502 26.7567 20.9527 26.7637C20.9502 26.7567 20.9491 26.7531 20.9491 26.7531C20.9491 26.7531 20.7869 26.6228 20.5811 26.3828C20.7869 26.6228 20.9491 26.7531 20.9491 26.7531Z" fill="#AA9678"/> <path d="M26.4819 16.7224C26.4819 16.7208 26.4822 16.7194 26.4822 16.7177C26.4822 16.7194 26.4819 16.7208 26.4819 16.7224Z" fill="white"/> <path d="M26.6531 12.9513C26.6503 12.9477 26.6476 12.9446 26.6451 12.9407L26.6453 12.9409C26.5124 12.7531 26.3753 12.5821 26.2346 12.4265C26.234 12.4262 26.2337 12.4256 26.2335 12.4251C26.2337 12.4256 26.234 12.4262 26.2346 12.4265C26.2335 12.4253 26.2321 12.4237 26.231 12.4223C26.167 12.3519 26.1024 12.2846 26.037 12.221C26.0122 12.1968 25.9868 12.1758 25.962 12.1528C25.9209 12.115 25.8798 12.0757 25.8381 12.041V12.0415V13.5536L26.4081 16.2058C26.4144 16.2266 26.4219 16.2457 26.4274 16.267L26.8222 16.7167L26.826 16.7125H27.239C27.2396 16.6735 27.2421 16.6351 27.2421 16.5961V16.5953C27.2418 15.3443 27.0396 14.1423 26.6732 13.0164C26.6663 12.9948 26.6602 12.9729 26.6531 12.9513Z" fill="#BABCBE"/> <path d="M26.4825 16.7177C26.4825 16.7163 26.4822 16.7149 26.4822 16.7132C26.4822 16.7149 26.4825 16.7163 26.4825 16.7177Z" fill="#BABCBE"/> <path d="M26.4642 16.4665C26.4648 16.471 26.4659 16.4747 26.4664 16.4791C26.4667 16.4816 26.4675 16.4839 26.4678 16.4867C26.4678 16.4869 26.4678 16.4875 26.4681 16.4878C26.4755 16.5495 26.4786 16.6141 26.4799 16.6795C26.4802 16.6915 26.4819 16.7027 26.4819 16.7147C26.4819 16.7164 26.4821 16.7175 26.4821 16.7192C26.4821 16.7209 26.4819 16.7223 26.4819 16.7239C26.4819 16.7368 26.4799 16.7488 26.4797 16.7617C26.4783 16.8257 26.4755 16.8891 26.4681 16.9497C26.4681 16.95 26.4681 16.9506 26.4681 16.9508C26.4675 16.9539 26.4667 16.9567 26.4664 16.9601C26.4659 16.9648 26.4642 16.9693 26.4637 16.9743C26.4548 17.0406 26.4432 17.1048 26.4278 17.166C26.4278 17.1663 26.4278 17.1666 26.4278 17.1669L26.4297 17.1646C26.43 17.1635 26.4306 17.1627 26.4306 17.1616L26.822 16.7181L26.4272 16.2698C26.4272 16.2701 26.4272 16.2706 26.4275 16.2709C26.4432 16.3332 26.4551 16.3989 26.4642 16.4665Z" fill="#676A6B"/> <path d="M25.8613 16.5683C25.7281 16.5683 25.6199 16.3802 25.6199 16.1478C25.6199 15.9156 25.7281 15.7272 25.8613 15.7272C25.9946 15.7272 26.1027 15.9156 26.1027 16.1478C26.1027 16.3802 25.9946 16.5683 25.8613 16.5683ZM26.4638 16.9737C26.465 16.9653 26.4672 16.9577 26.4683 16.9491C26.4754 16.8882 26.4782 16.8246 26.4798 16.7604C26.4801 16.7458 26.4821 16.7323 26.4821 16.7178C26.4821 16.704 26.4801 16.6914 26.4798 16.6779C26.4785 16.6123 26.4757 16.5476 26.468 16.4856C26.4672 16.478 26.4652 16.4716 26.4644 16.4643C26.4553 16.3965 26.4432 16.3306 26.4274 16.268C26.4219 16.2462 26.4142 16.2268 26.4078 16.2058C26.3701 16.0782 26.3185 15.9661 26.2572 15.8724C26.2489 15.8601 26.2407 15.8481 26.2321 15.8363C26.2153 15.8133 26.1985 15.7909 26.1805 15.771C26.154 15.7418 26.1267 15.7149 26.0978 15.6927C26.0867 15.6843 26.0751 15.6784 26.0638 15.6709C26.039 15.6546 26.0133 15.64 25.9871 15.6294C25.9758 15.6246 25.9645 15.6201 25.9529 15.6162C25.9157 15.6047 25.8776 15.5963 25.8384 15.5963C25.799 15.5963 25.7609 15.6047 25.7237 15.6162C25.7121 15.6201 25.7008 15.6246 25.6895 15.6294C25.6633 15.6403 25.6376 15.6546 25.6128 15.6709C25.6015 15.6784 25.5899 15.6843 25.5788 15.6927C25.5502 15.7149 25.5226 15.7418 25.4961 15.771C25.4781 15.7909 25.4613 15.8133 25.4448 15.8363C25.4359 15.8481 25.4277 15.8601 25.4191 15.8727C25.3581 15.9661 25.3063 16.0782 25.2685 16.2058C25.2668 16.2108 25.2652 16.2159 25.2638 16.2209C25.247 16.2793 25.2343 16.3409 25.2232 16.404C25.2199 16.4234 25.2155 16.4419 25.2128 16.4618C25.2028 16.5324 25.1979 16.6059 25.1965 16.6813C25.1962 16.692 25.1948 16.7018 25.1948 16.7124H25.1973C25.1973 17.3318 25.4856 17.8336 25.8412 17.8336C25.9024 17.8336 25.9615 17.8174 26.0175 17.7896C26.0266 17.7848 26.0354 17.7803 26.0442 17.775C26.0677 17.7616 26.0903 17.7467 26.1124 17.7288C26.1245 17.7189 26.1358 17.7069 26.1474 17.6957C26.1758 17.6688 26.2029 17.6382 26.2285 17.6043C26.2462 17.5807 26.2636 17.5569 26.2798 17.5303C26.2903 17.5134 26.2997 17.4952 26.3096 17.477C26.3273 17.4433 26.3444 17.4083 26.3598 17.3707C26.3656 17.3573 26.3714 17.3444 26.3767 17.3304C26.3963 17.2785 26.4134 17.2235 26.428 17.1661C26.4432 17.1047 26.4547 17.0402 26.4638 16.9737Z" fill="#231F20"/> <path d="M25.8613 15.73C25.728 15.73 25.6199 15.9175 25.6199 16.1492C25.6199 16.3806 25.728 16.5684 25.8613 16.5684C25.9945 16.5684 26.1027 16.3806 26.1027 16.1492C26.1027 15.9175 25.9945 15.73 25.8613 15.73Z" fill="white"/> <path d="M25.2686 16.2057C25.3063 16.0781 25.3582 15.966 25.4192 15.8726C25.4277 15.86 25.436 15.8479 25.4448 15.8362C25.4614 15.8132 25.4782 15.7907 25.4962 15.7708C25.5224 15.7414 25.5502 15.715 25.5789 15.6926C25.59 15.6842 25.6015 15.6783 25.6128 15.6707C25.6377 15.6542 25.6633 15.6402 25.6895 15.6293C25.7009 15.6245 25.7122 15.62 25.7238 15.6161C25.761 15.6043 25.7991 15.5962 25.8382 15.5962C25.8777 15.5962 25.9158 15.6043 25.953 15.6161C25.9646 15.62 25.9759 15.6245 25.9869 15.6293C26.0134 15.6402 26.0388 15.6542 26.0639 15.6707C26.0752 15.6783 26.0868 15.6842 26.0978 15.6926C26.1265 15.715 26.1541 15.7414 26.1806 15.7708C26.1985 15.7907 26.2154 15.8132 26.2322 15.8362C26.2407 15.8479 26.249 15.86 26.2573 15.8723C26.3185 15.966 26.3701 16.0781 26.4079 16.2057H26.4082L25.8382 13.5537L25.2686 16.2057Z" fill="#909394"/> <path d="M16.7811 16.5133C16.4682 16.5133 16.2147 16.2556 16.2147 15.9377C16.2147 15.62 16.4682 15.3624 16.7811 15.3624C17.0939 15.3624 17.3474 15.62 17.3474 15.9377C17.3474 16.2556 17.0939 16.5133 16.7811 16.5133ZM18.2873 16.693C18.2868 16.6394 18.2832 16.5867 18.2771 16.5351C18.2771 16.5343 18.2771 16.5335 18.2769 16.5329C18.2711 16.4819 18.2625 16.4314 18.2518 16.3821C18.2515 16.3807 18.2512 16.3793 18.2509 16.3781C18.2402 16.3291 18.2269 16.2811 18.2118 16.234C18.2115 16.2329 18.2109 16.2321 18.2107 16.2309C18.1949 16.1838 18.1776 16.1376 18.1577 16.0927C18.1574 16.0919 18.1569 16.0908 18.1566 16.0899C18.1367 16.0448 18.1147 16.0008 18.0906 15.9581V15.9579C18.0173 15.8275 17.926 15.7092 17.8197 15.6066C17.6848 15.4759 17.5262 15.3702 17.3513 15.2973C17.3499 15.2965 17.3485 15.2962 17.3469 15.2956C17.2608 15.2597 17.1706 15.232 17.0774 15.2129C17.0749 15.2124 17.0727 15.2121 17.0702 15.2118C16.9767 15.1933 16.8801 15.1829 16.7811 15.1829C16.6837 15.1829 16.5891 15.193 16.4969 15.211C16.4936 15.2115 16.4903 15.2118 16.4873 15.2126C16.3957 15.2311 16.3071 15.2581 16.2224 15.2928C16.2202 15.2937 16.2177 15.2945 16.2155 15.2953C16.1297 15.3309 16.0475 15.3744 15.9703 15.4249C15.97 15.4252 15.9697 15.4252 15.9697 15.4254C15.8916 15.4762 15.8185 15.5342 15.7512 15.5984L15.7496 15.6037L15.744 15.6052C15.6367 15.7086 15.5443 15.8283 15.4704 15.9598C15.4696 15.9615 15.4684 15.9629 15.4676 15.9643C15.4453 16.005 15.4249 16.0467 15.4061 16.0893C15.4039 16.0938 15.4017 16.0983 15.3995 16.1031C15.3824 16.1426 15.3678 16.1833 15.354 16.2245C15.3512 16.2326 15.3479 16.2402 15.3454 16.2483C15.3333 16.2867 15.3236 16.3263 15.3145 16.3658C15.312 16.3773 15.3084 16.3879 15.306 16.3994C15.298 16.4384 15.2924 16.4785 15.2872 16.5189C15.2858 16.5309 15.2831 16.5427 15.282 16.555C15.2764 16.6078 15.2737 16.661 15.2737 16.7149C15.2737 16.8163 15.2839 16.9153 15.3024 17.0109C15.3029 17.0129 15.3029 17.0151 15.3035 17.0171C15.3222 17.1127 15.3501 17.2049 15.3857 17.2933C15.386 17.2944 15.3865 17.2958 15.3871 17.2969C15.4596 17.4755 15.5645 17.6373 15.6941 17.7746C15.7965 17.8832 15.9145 17.9762 16.0442 18.0508C16.045 18.0511 16.0453 18.0517 16.0461 18.0519C16.0867 18.0749 16.1286 18.096 16.1711 18.115C16.1747 18.1167 16.178 18.1187 16.1816 18.1203C16.221 18.1377 16.2619 18.1529 16.3033 18.1669C16.3099 18.1694 16.3168 18.1725 16.3239 18.1747C16.3617 18.1871 16.4012 18.1969 16.4404 18.2061C16.4511 18.2087 16.4613 18.2123 16.4718 18.2143C16.5102 18.2227 16.5496 18.228 16.5888 18.2331C16.6006 18.2347 16.6125 18.2373 16.6246 18.2387C16.676 18.244 16.7284 18.2471 16.7811 18.2471C16.9891 18.2471 17.1877 18.2042 17.3679 18.1265C17.4581 18.0878 17.5439 18.0404 17.6239 17.9852C17.7844 17.875 17.9226 17.7346 18.0311 17.5714C18.0854 17.4901 18.1318 17.4029 18.1701 17.3112C18.2465 17.1278 18.2885 16.9265 18.2885 16.7149C18.2885 16.7115 18.2879 16.7078 18.2879 16.7045C18.2879 16.7006 18.2873 16.6966 18.2873 16.693Z" fill="#231F20"/> <path d="M16.7812 15.3659C16.4684 15.3659 16.2148 15.6227 16.2148 15.9396C16.2148 16.2565 16.4684 16.5131 16.7812 16.5131C17.0941 16.5131 17.3476 16.2565 17.3476 15.9396C17.3476 15.6227 17.0941 15.3659 16.7812 15.3659Z" fill="white"/> <path d="M15.744 15.605L15.7495 15.6036L15.7512 15.5983L16.7896 12.3715V11.9897V11.8329V11.785V11.7183V11.6782V11.6381V11.6162V11.6078C16.2111 11.4872 15.6165 11.4211 15.0082 11.4211C14.8049 11.4211 14.6035 11.4298 14.4035 11.4435C14.374 11.4455 14.3448 11.4474 14.3158 11.4497C13.2735 11.5301 12.2473 11.8063 11.2972 12.247C10.4822 12.6253 9.72495 13.1232 9.04436 13.7139C9.04409 13.7142 9.04381 13.7148 9.04326 13.7151C8.86063 13.8729 8.68545 14.0394 8.51441 14.2099C8.4824 14.2419 8.44985 14.2733 8.4184 14.3055C8.25729 14.4704 8.1017 14.6408 7.95107 14.8163C7.91852 14.8545 7.88651 14.8934 7.85424 14.9321C7.70333 15.1132 7.55601 15.298 7.41642 15.4887C7.40483 15.5049 7.3938 15.5215 7.38221 15.5374C7.24924 15.7216 7.12261 15.9106 7.0004 16.1024C6.97668 16.14 6.95212 16.1772 6.92867 16.2148C6.82991 16.3741 6.73804 16.5375 6.64673 16.7015H11.3681H11.3763L15.744 15.605Z" fill="#BABCBE"/> <path d="M19.737 15.2418C19.7467 15.1159 19.7544 14.99 19.7607 14.8642C19.7695 14.6934 19.7753 14.5229 19.7784 14.3522C19.7811 14.2199 19.7806 14.0873 19.7803 13.9546C19.78 13.9165 19.7809 13.8781 19.7806 13.84C19.7773 13.4982 19.764 13.1564 19.7433 12.8144C19.7425 12.8135 19.7417 12.813 19.7406 12.8124C19.7403 12.8116 19.7398 12.8107 19.7395 12.8099C19.7381 12.8091 19.7331 12.8063 19.7287 12.8037C19.7249 12.8015 19.7213 12.7995 19.7138 12.795C19.652 12.7591 19.5003 12.6706 19.3637 12.592C19.361 12.5904 19.3579 12.5887 19.3552 12.587C19.3207 12.5671 19.2876 12.548 19.2572 12.5306C19.2567 12.5304 19.2561 12.5301 19.2556 12.5295C19.2297 12.5147 19.2079 12.5023 19.1877 12.4908C19.1836 12.4889 19.1781 12.4855 19.1742 12.4835C19.1521 12.4709 19.135 12.4614 19.1251 12.4561C18.9077 12.3414 18.6856 12.2354 18.46 12.1387C17.9223 11.9077 17.1978 11.7055 16.7896 11.6077V11.8981V11.966V11.9895V12.3714L17.8186 15.6038L17.8199 15.6063C17.9262 15.7092 18.0175 15.8275 18.0909 15.9579C18.1149 16.0008 18.1366 16.0448 18.1565 16.0899C18.1571 16.0908 18.1573 16.0916 18.1579 16.0927C18.1778 16.1376 18.1951 16.1836 18.2106 16.2307C18.2109 16.2318 18.2114 16.2329 18.212 16.234C18.2271 16.2811 18.2401 16.3291 18.2509 16.3782C18.2511 16.3793 18.2517 16.3807 18.252 16.3818C18.2627 16.4314 18.2713 16.4816 18.2771 16.5326C18.2771 16.5335 18.2773 16.534 18.2773 16.5349C18.2834 16.5867 18.2867 16.6395 18.2875 16.6927L18.2914 16.7014H19.5513C19.6366 16.2329 19.6962 15.758 19.7334 15.2811C19.7345 15.2679 19.7359 15.2547 19.737 15.2418Z" fill="#E3DEDC"/> <path d="M21.3848 14.0989C21.3842 14.1006 21.3834 14.102 21.3826 14.1036C21.3834 14.102 21.3842 14.1006 21.3848 14.0989Z" fill="#FBB03F"/> <path d="M18.2982 21.3071C18.5841 21.018 18.8541 20.741 19.1115 20.4699C19.2644 20.3087 19.4139 20.1492 19.5568 19.9916C20.6098 18.83 21.3831 17.7427 21.8479 16.344C21.859 16.3109 21.87 16.2672 21.8805 16.2181C21.8824 16.2105 21.8841 16.2032 21.8855 16.1954C21.8965 16.1432 21.9072 16.0852 21.9177 16.0196C21.9219 15.9745 21.926 15.9307 21.9301 15.8884C21.8134 15.2794 21.5864 14.6876 21.3861 14.1033C21.3869 14.1052 21.3878 14.1072 21.3883 14.1092C21.3872 14.108 21.3834 14.1044 21.3825 14.1036C21.3442 14.0665 21.3039 14.0321 21.265 13.9956C21.1467 13.8846 21.0261 13.7764 20.9033 13.6712C20.5356 13.3558 20.1488 13.0682 19.7433 12.8144C19.764 13.1565 19.7769 13.4982 19.7805 13.84C19.7811 13.8781 19.78 13.9165 19.7803 13.9547C19.7805 14.0873 19.7811 14.2199 19.7783 14.3522C19.7753 14.523 19.7695 14.6937 19.7607 14.8642C19.7543 14.9901 19.7466 15.116 19.7369 15.2419C19.7358 15.255 19.7345 15.2679 19.7334 15.2811C19.6958 15.758 19.6365 16.233 19.5513 16.7015L19.4034 17.4128C19.0941 18.6865 18.4663 19.8419 17.9501 21.0346C17.8133 21.3511 17.6833 21.6707 17.5694 21.9965C17.5592 22.0265 17.5481 22.0576 17.5371 22.0887C17.6985 21.9163 17.8411 21.7674 17.9498 21.6581C18.0682 21.5392 18.1843 21.4223 18.2982 21.3071Z" fill="#FBB03F"/> <path d="M15.7512 15.5983C15.8185 15.5341 15.8916 15.4761 15.9697 15.4253C15.9697 15.425 15.97 15.425 15.9703 15.4248C16.0475 15.3743 16.1297 15.3308 16.2155 15.2952C16.2177 15.2944 16.2202 15.2938 16.2224 15.2927C16.3071 15.2582 16.3957 15.231 16.487 15.2125C16.4903 15.212 16.4936 15.2117 16.4969 15.2108C16.5891 15.1929 16.6837 15.1828 16.7811 15.1828C16.8801 15.1828 16.9767 15.1932 17.0702 15.2117C17.0727 15.2122 17.0749 15.2125 17.0774 15.2128C17.1706 15.2319 17.2608 15.2596 17.3469 15.2955C17.3485 15.2961 17.3499 15.2964 17.3513 15.2972C17.5262 15.3704 17.6848 15.4758 17.8197 15.6064L17.8186 15.6036L16.7893 12.3715L15.7512 15.5983Z" fill="#909394"/> <path d="M15.3857 17.2933C15.3501 17.2049 15.3223 17.1124 15.3035 17.0171C15.303 17.0149 15.303 17.0129 15.3024 17.0109C15.2839 16.915 15.2737 16.8164 15.2737 16.7149C15.2737 16.661 15.2765 16.6078 15.282 16.555C15.2831 16.5427 15.2859 16.5309 15.2875 16.5186C15.2925 16.4785 15.298 16.4384 15.306 16.3994C15.3085 16.3879 15.3121 16.377 15.3146 16.3658C15.3237 16.326 15.3333 16.2867 15.3455 16.248C15.3479 16.2402 15.3512 16.2323 15.354 16.2245C15.3678 16.1833 15.3824 16.1426 15.3995 16.1028C15.4017 16.0983 15.4039 16.0938 15.4061 16.0893C15.4249 16.0467 15.4453 16.005 15.4677 15.9643C15.4685 15.9629 15.4696 15.9615 15.4704 15.9598C15.5444 15.828 15.6368 15.7086 15.7441 15.6051L11.3764 16.7014H11.3682L15.6942 17.7747C15.5645 17.6373 15.4597 17.4755 15.3871 17.2969C15.3866 17.2958 15.386 17.2944 15.3857 17.2933Z" fill="#676A6B"/> <path d="M25.2129 16.4616C25.2156 16.442 25.2198 16.4235 25.2231 16.4039C25.2341 16.3408 25.2471 16.2794 25.2639 16.2211C25.2656 16.2143 25.2664 16.2068 25.2683 16.2003L25.8383 13.5483V12.0363C25.3726 11.6455 24.8738 11.4318 24.3546 11.4318C23.6989 11.4318 23.0873 11.7999 22.6298 12.2544C22.1294 12.7521 21.7426 13.3781 21.4298 14.0098C21.4154 14.039 21.4008 14.0667 21.3865 14.0962C21.4828 14.1808 21.5782 14.2669 21.6723 14.3544C21.8853 14.5526 22.0935 14.7559 22.2991 14.9619C22.3951 15.0578 22.4889 15.156 22.5832 15.2535C22.6834 15.3573 22.7835 15.4604 22.882 15.5656C23.0086 15.701 23.1341 15.8375 23.2586 15.9752C23.3107 16.0332 23.3629 16.0913 23.4147 16.1499C23.5645 16.3184 23.7135 16.4877 23.8603 16.6593L23.8605 16.6596C23.8851 16.6856 23.9025 16.7044 23.9091 16.7123H25.1944C25.1944 16.7016 25.1963 16.6921 25.1966 16.6814C25.198 16.606 25.2029 16.5323 25.2129 16.4616Z" fill="#E3DEDC"/> <path d="M21.3862 14.1032C21.3856 14.1018 21.3853 14.1005 21.3848 14.0991C21.3839 14.1007 21.3831 14.1021 21.3826 14.1035C21.3834 14.1043 21.387 14.1082 21.3881 14.109C21.3875 14.1071 21.3867 14.1051 21.3862 14.1032Z" fill="#E3DEDC"/> <path d="M5.87198 18.3703C5.87557 18.3605 5.87971 18.351 5.8833 18.3412C5.96606 18.1214 6.05682 17.9044 6.152 17.6893C6.17848 17.6293 6.20579 17.5702 6.23338 17.5107C6.31146 17.3422 6.39394 17.1757 6.47946 17.0108C6.51422 16.9438 6.54816 16.8762 6.5843 16.8098C6.60388 16.7731 6.62651 16.738 6.64692 16.7016C6.73796 16.5376 6.82983 16.3741 6.92859 16.2149C6.95204 16.177 6.97659 16.14 7.00032 16.1027C7.12253 15.9107 7.24916 15.7217 7.3824 15.5375C7.39399 15.5215 7.40475 15.505 7.41634 15.489C7.55593 15.298 7.70325 15.1133 7.85415 14.9322C7.88643 14.8935 7.91843 14.8545 7.95126 14.8164C8.10161 14.6409 8.25721 14.4704 8.41832 14.3055C8.45004 14.2733 8.48232 14.2419 8.51432 14.2099C8.68537 14.0395 8.86055 13.8729 9.04345 13.7151C9.04373 13.7148 9.04428 13.7145 9.04456 13.714C9.76321 11.2669 11.9625 9.48517 14.5651 9.48517C15.6129 9.48517 16.6543 9.79189 17.5473 10.347C18.463 10.9162 19.2092 11.75 19.6939 12.7223C19.6964 12.7273 19.6989 12.7321 19.7011 12.7369C19.7135 12.7616 19.7273 12.7854 19.7394 12.8101C19.7397 12.8109 19.7403 12.8117 19.7405 12.8126C19.7414 12.8131 19.7425 12.8137 19.7433 12.8145C20.1488 13.0683 20.5356 13.3559 20.9034 13.6714C21.0261 13.7765 21.1467 13.8844 21.265 13.9955C21.3039 14.0322 21.3442 14.0667 21.3825 14.1037C21.3834 14.102 21.3842 14.1006 21.3848 14.0989C21.3853 14.0981 21.3856 14.097 21.3861 14.0961C21.3994 14.0684 21.4126 14.0403 21.4259 14.0131C21.7925 11.6608 22.8138 9.96628 24.018 9.96628C24.9256 9.96628 25.7298 10.9285 26.228 12.4091L26.2333 12.4248C26.2335 12.4254 26.2341 12.426 26.2347 12.4265C26.3751 12.5818 26.5122 12.7531 26.6452 12.941V12.9407C26.6476 12.9444 26.6504 12.9477 26.6532 12.9514L26.6529 12.9511L26.6532 12.9514C26.6603 12.973 26.6661 12.9948 26.6733 13.0164L26.6545 12.939C25.1563 8.43154 20.9613 5.18656 16.0204 5.18656C9.8228 5.18656 4.79883 10.2923 4.79883 16.5905C4.79883 17.8323 4.99415 19.0278 5.35665 20.14C5.35692 20.1378 5.35775 20.1358 5.35803 20.1336C5.42948 19.7982 5.515 19.4646 5.61404 19.1349C5.69156 18.8775 5.77791 18.6224 5.87198 18.3703Z" fill="#515353"/> <path d="M26.8221 16.7166L26.4307 17.1616V17.1613C26.4307 17.1624 26.4301 17.1635 26.4298 17.1644C26.4149 17.223 26.3967 17.2776 26.3766 17.3303C26.3714 17.3441 26.3656 17.3573 26.3598 17.3707C26.3443 17.408 26.3275 17.4433 26.3096 17.477C26.2996 17.4949 26.2902 17.5131 26.2798 17.5303C26.2638 17.5566 26.2461 17.5807 26.2285 17.6043C26.2028 17.6382 26.1758 17.6688 26.1473 17.6957C26.1358 17.7066 26.1244 17.7189 26.1123 17.7288C26.0902 17.7464 26.0676 17.7616 26.0442 17.775C26.0353 17.7801 26.0265 17.7851 26.0174 17.7896C25.9614 17.8173 25.9026 17.8336 25.8411 17.8336C25.4855 17.8336 25.1972 17.3315 25.1972 16.7121H25.1947H25.1942H23.9089H23.905L23.9059 16.713C24.1459 16.9947 24.3815 17.2799 24.6143 17.5681C24.6171 17.5715 24.6198 17.5751 24.6226 17.5785C24.8488 17.8588 25.0714 18.142 25.2919 18.4269C25.3026 18.4409 25.3136 18.4549 25.3244 18.4689C25.5335 18.7395 25.7399 19.0123 25.9449 19.2856C25.9647 19.312 25.9849 19.3384 26.0047 19.3647C26.2213 19.6546 26.4359 19.9451 26.6489 20.2355C26.6503 20.2378 26.6519 20.2397 26.6536 20.2417C27.0227 19.1317 27.2291 17.9458 27.242 16.7121H27.239H26.826L26.8221 16.7166Z" fill="white"/> <path d="M14.3158 11.4499C14.3448 11.4476 14.374 11.4456 14.4036 11.4437C14.6036 11.4299 14.805 11.421 15.0083 11.421C15.6166 11.421 16.2114 11.4874 16.7896 11.6077V11.6164V11.638V11.6784V11.7184V11.7849V11.8331V11.8984V11.6077C17.1979 11.7056 17.9224 11.908 18.46 12.1387C18.6857 12.2354 18.9078 12.3417 19.1252 12.4561C19.1351 12.4614 19.1522 12.4712 19.1743 12.4836C19.1781 12.4855 19.1837 12.4889 19.1878 12.4911C19.2079 12.5024 19.2297 12.515 19.2557 12.5298C19.2562 12.5301 19.2568 12.5304 19.2573 12.5307C19.2877 12.5481 19.3208 12.5671 19.3553 12.587C19.358 12.5887 19.361 12.5904 19.3638 12.5921C19.5023 12.672 19.6551 12.7609 19.7139 12.7951C19.7213 12.7995 19.7247 12.8015 19.7288 12.804C19.7315 12.8054 19.7384 12.8094 19.7395 12.8102C19.7274 12.7853 19.7136 12.7617 19.7012 12.737C19.699 12.732 19.6965 12.7272 19.694 12.7224C19.2093 11.7501 18.4631 10.9163 17.5474 10.3469C16.6547 9.79175 15.613 9.48531 14.5652 9.48531C11.9626 9.48531 9.76333 11.2668 9.04468 13.7141C9.72499 13.1234 10.4823 12.6252 11.2972 12.2472C12.2473 11.8062 13.2736 11.5303 14.3158 11.4499Z" fill="#231F20"/> <path d="M16.7896 11.8968V11.9661" stroke="#231F20" stroke-linecap="round" stroke-linejoin="round"/> <path d="M22.6297 12.2544C23.0871 11.7997 23.6987 11.4318 24.3544 11.4318C24.8739 11.4318 25.3724 11.6455 25.8381 12.0363C25.8381 12.0363 25.8381 12.0397 25.8381 12.0408V12.0416V12.0408C25.8798 12.0756 25.9209 12.1148 25.962 12.1529C25.9868 12.1756 26.0122 12.1967 26.037 12.2208C26.1024 12.2844 26.167 12.3517 26.231 12.4224V12.4221C26.2321 12.4235 26.2334 12.4252 26.2345 12.4266C26.234 12.426 26.2337 12.4255 26.2334 12.4249H26.2332L26.2279 12.4089C25.7297 10.9283 24.9255 9.96634 24.0179 9.96634C22.8137 9.96634 21.7927 11.6609 21.426 14.0132L21.4296 14.0098C21.7425 13.3781 22.1292 12.7521 22.6297 12.2544Z" fill="#231F20"/> <path d="M12.0026 27.2288C12.1052 27.2688 12.2095 27.3047 12.3133 27.3417C13.4739 27.755 14.7208 27.9827 16.0205 27.9827C17.5028 27.9827 18.9163 27.688 20.2116 27.1575C20.28 27.1295 20.347 27.0987 20.4149 27.0695C20.525 27.0218 20.6342 26.9728 20.7424 26.9218C20.8389 26.8763 20.9358 26.8309 21.0309 26.7824C21.008 26.7852 20.9851 26.79 20.962 26.7925C20.5595 26.8385 20.1597 26.8413 19.7694 26.7844C17.4605 26.4468 16.9491 25.3155 17.0222 24.1371C16.8561 24.0398 16.6867 23.9302 16.5148 23.8032C14.739 22.4942 13.6852 21.0993 13.6852 21.0993C13.6852 21.0993 15.0549 22.174 17.1008 22.9781C17.1449 22.9955 17.186 23.0103 17.2291 23.0269C17.3248 22.691 17.4379 22.3716 17.5372 22.0888C17.5483 22.0576 17.5593 22.0265 17.5695 21.9965C17.6835 21.6707 17.8131 21.3511 17.9502 21.0346C18.4664 19.8419 19.0943 18.6865 19.4035 17.4128L19.5514 16.7015H18.2912H18.2887L18.2884 16.7017C18.2884 16.7026 18.2887 16.7032 18.2887 16.704L18.2882 16.7043C18.2882 16.7079 18.2887 16.7113 18.2887 16.7149C18.2887 16.9263 18.2465 17.1279 18.1701 17.3113C18.132 17.403 18.0854 17.4901 18.0313 17.5715C17.9226 17.7346 17.7844 17.8751 17.6239 17.9853C17.5439 18.0405 17.4581 18.0876 17.3679 18.1266C17.1877 18.2042 16.9894 18.2469 16.7811 18.2469C16.7284 18.2469 16.676 18.2441 16.6246 18.2387C16.6125 18.2373 16.6009 18.2345 16.5891 18.2331C16.5496 18.2278 16.5102 18.2225 16.4721 18.2143C16.4613 18.2121 16.4511 18.2087 16.4404 18.2062C16.4012 18.197 16.362 18.1871 16.3239 18.1748C16.317 18.1726 16.3101 18.1692 16.3032 18.167C16.2619 18.1529 16.2213 18.1378 16.1816 18.1204C16.178 18.1187 16.1747 18.1168 16.1711 18.1151C16.1286 18.096 16.0867 18.075 16.0461 18.052C16.0456 18.0517 16.045 18.0512 16.0442 18.0509C15.9145 17.9763 15.7965 17.8832 15.6941 17.7747L11.3681 16.7015H6.64677C6.62663 16.7382 6.60401 16.7732 6.58415 16.8097C6.54828 16.8761 6.51407 16.9437 6.47931 17.0107C6.39379 17.1756 6.31158 17.3421 6.23351 17.5106C6.20592 17.5701 6.17861 17.6295 6.15212 17.6895C6.05695 17.9043 5.96618 18.1213 5.88342 18.3413C5.87984 18.3509 5.8757 18.3607 5.87211 18.3702C5.77804 18.6226 5.69169 18.8774 5.61417 19.1348C5.51485 19.4648 5.42933 19.7981 5.35815 20.1335C6.10164 22.4375 7.5475 24.4172 9.43808 25.8123C9.49298 25.853 9.55091 25.8892 9.60664 25.9287C9.92638 26.1558 10.2566 26.3683 10.5998 26.5615C11.0497 26.8146 11.5174 27.0392 12.0026 27.2288Z" fill="white"/> <path d="M19.7502 23.6864C19.7331 23.8087 19.7215 23.9287 19.7179 24.0447C19.7113 24.2556 19.7256 24.4561 19.7557 24.6453C19.7758 24.7717 19.8029 24.8929 19.8354 25.0089C19.8843 25.1833 19.9455 25.3459 20.0139 25.4965C20.0823 25.6471 20.1579 25.785 20.2357 25.9103C20.2616 25.9521 20.2879 25.9925 20.3138 26.0314C20.3532 26.0895 20.3927 26.1447 20.4316 26.1963C20.4832 26.2647 20.5328 26.3253 20.5811 26.3816C20.7869 26.6225 20.9491 26.7531 20.9491 26.7531C20.9491 26.7531 20.9505 26.7568 20.9527 26.7635C20.9549 26.7705 20.958 26.7803 20.9621 26.7924C20.985 26.7898 21.0082 26.7853 21.0311 26.7823C21.5315 26.7186 22.0355 26.581 22.5327 26.3993C22.7865 26.3065 23.0389 26.2058 23.2875 26.0906C23.3633 26.0556 23.4375 26.0166 23.5126 25.9796C26.0829 24.7162 28.2353 22.4823 28.2353 22.4823C25.0059 24.0949 21.8493 24.0307 19.7502 23.6864Z" fill="#9F2255"/> <path d="M25.9448 19.2856C25.7398 19.0122 25.5335 18.7397 25.3243 18.4689C25.3136 18.4549 25.3025 18.4409 25.2918 18.4268C25.0714 18.142 24.8487 17.8591 24.6228 17.5787C24.6198 17.5751 24.617 17.5717 24.6142 17.5683C24.3814 17.2801 24.1458 16.9947 23.9058 16.7132C23.8906 16.6953 23.8757 16.677 23.8603 16.6594C23.7135 16.4878 23.5645 16.3185 23.4147 16.1497C23.3629 16.0914 23.3107 16.033 23.2583 15.9753C23.1342 15.8376 23.0084 15.7008 22.8817 15.5657C22.7833 15.4605 22.6834 15.3571 22.5832 15.2536C22.4889 15.156 22.3951 15.0579 22.2991 14.962C22.0936 14.756 21.8853 14.5527 21.6723 14.3545C21.578 14.267 21.4828 14.1809 21.3862 14.096C21.3857 14.0971 21.3854 14.0979 21.3848 14.0988C21.5876 14.6912 21.8191 15.2909 21.9347 15.9086C21.965 16.0692 21.9901 16.2254 22.0102 16.3782C22.2925 18.5157 21.6185 19.9114 20.5481 21.7475C20.4714 21.8793 20.3928 22.013 20.3122 22.1496C20.0673 22.5642 19.9106 22.957 19.8198 23.326C19.7895 23.4488 19.7666 23.5691 19.75 23.6866C21.8491 24.0308 25.0057 24.095 28.2354 22.4821C28.2354 22.4821 27.602 21.5361 26.6488 20.2358C26.4358 19.945 26.2212 19.6546 26.0047 19.3649C25.9848 19.3383 25.9647 19.312 25.9448 19.2856Z" fill="#E3046F"/> <path d="M20.9491 26.753C20.9491 26.753 20.7869 26.6223 20.5811 26.3815C20.5328 26.3251 20.4832 26.2648 20.4316 26.1961C20.3927 26.1446 20.3532 26.0896 20.3138 26.0313C20.2879 25.9926 20.2617 25.9522 20.2357 25.9105C20.1579 25.7851 20.0821 25.6469 20.0139 25.4966C19.9455 25.3461 19.8843 25.1832 19.8354 25.0091C19.8029 24.893 19.7758 24.7716 19.7557 24.6454C19.7256 24.4559 19.7113 24.2554 19.7179 24.0446C19.7212 23.9285 19.7331 23.8088 19.7502 23.6863C19.7665 23.5691 19.7894 23.4485 19.8197 23.3257C19.9105 22.957 20.0674 22.5642 20.3121 22.1496C20.313 22.1485 20.3135 22.1473 20.3141 22.1459C20.3941 22.0108 20.4721 21.8779 20.5483 21.7475C21.6187 19.9114 22.2926 18.5157 22.0102 16.3782C21.99 16.2254 21.9649 16.0692 21.9348 15.9086C21.9188 16.0196 21.9026 16.1149 21.8857 16.1951C21.8841 16.2032 21.8824 16.2102 21.8805 16.2178C21.87 16.2669 21.859 16.3109 21.8479 16.344C21.3831 17.7425 20.6098 18.8297 19.5568 19.9916C19.4142 20.1489 19.2646 20.3087 19.1115 20.4699C18.8541 20.741 18.5841 21.018 18.2982 21.3071C18.1843 21.4223 18.0682 21.5392 17.9498 21.6581C17.8411 21.7674 17.6985 21.9163 17.5371 22.0885C17.4378 22.3716 17.3247 22.691 17.229 23.0269C17.1859 23.0103 17.1448 22.9955 17.1009 22.9781C15.0548 22.1737 13.6851 21.0993 13.6851 21.0993C13.6851 21.0993 14.7389 22.4942 16.5147 23.8032C16.6869 23.9302 16.856 24.0398 17.022 24.1371C16.9489 25.3155 17.4604 26.4468 19.7695 26.7841C20.1599 26.841 20.5593 26.8385 20.9618 26.7925C20.958 26.7802 20.9549 26.7703 20.9527 26.7636C20.9502 26.7566 20.9491 26.753 20.9491 26.753Z" fill="#231F20"/></svg>
